<svg viewBox="0 0 1441 183" fill="none" xmlns="http://www.w3.org/2000/svg">
<g>
<path id = "wave5" d="M0 25L34.4 38.2633C68.8 51.5991 137.6 78.1257 206.08 93.7082C274.72 109.291 342.88 113.929 411.52 104.58C480 95.3027 548.8 72.1101 617.28 73.1972C685.92 74.2844 754.08 99.6514 822.72 107.841C891.2 116.104 960 107.117 1028.48 93.8532C1097.12 80.5899 1165.28 62.9055 1233.92 65.0073C1302.4 67.0367 1371.2 88.7798 1405.6 99.6514L1440 110.523V183H1405.6C1371.2 183 1302.4 183 1233.92 183C1165.28 183 1097.12 183 1028.48 183C960 183 891.2 183 822.72 183C754.08 183 685.92 183 617.28 183C548.8 183 480 183 411.52 183C342.88 183 274.72 183 206.08 183C137.6 183 68.8 183 34.4 183H0V25Z" fill="#238095" fill-opacity="0.9"/>
</g>
<g>
<path id = "wave6" d="M0.00832756 150.572L48.0063 113.269C96.0042 75.5665 192 1.56114 288 6.55583C384.001 11.5505 480.005 97.5452 576.005 97.2399C672.005 97.5346 768.001 11.5293 864 1.22396C959.999 -9.48136 1056 54.5133 1152 86.508C1248.01 118.503 1344.01 118.497 1392.01 118.495L1440.01 118.492L1440.01 182.492L1392.01 182.495C1344.01 182.497 1248.01 182.503 1152.01 182.508C1056.01 182.513 960.01 182.519 864.01 182.524C768.01 182.529 672.01 182.535 576.01 182.54C480.01 182.545 384.01 182.551 288.01 182.556C192.01 182.561 96.0101 182.566 48.0101 182.569L0.0100983 182.572L0.00832756 150.572Z" fill="#238095" fill-opacity="0.9"/>
</g>
</svg>
