<svg width="1380" height="198" viewBox="0 0 1380 198" fill="none" xmlns="http://www.w3.org/2000/svg">
<g clip-path="url(#clip0_25_78)">
<path d="M147.999 226.957L191.03 184.849C234.061 142.291 320.123 58.7534 406.19 64.3927C492.257 70.0321 578.329 167.106 664.395 166.762C750.462 167.096 836.523 70.013 922.589 58.3814C1008.66 46.2983 1094.73 118.538 1180.79 154.655C1266.86 190.773 1352.93 190.768 1395.96 190.765L1439 190.763L1439 263.007L1395.97 263.01C1352.93 263.012 1266.87 263.017 1180.8 263.022C1094.73 263.026 1008.67 263.031 922.601 263.036C836.534 263.041 750.467 263.045 664.401 263.05C578.334 263.055 492.267 263.06 406.201 263.064C320.134 263.069 234.067 263.074 191.034 263.076L148.001 263.079L147.999 226.957Z" fill="#62D2BE" fill-opacity="0.65"/>
</g>
<defs>
<clipPath id="clip0_25_78">
<rect width="1440" height="320" fill="white" transform="translate(-61.0137 0.090332)"/>
</clipPath>
</defs>
</svg>
