<svg width="1441" height="184" viewBox="0 0 1441 184" fill="none" xmlns="http://www.w3.org/2000/svg">
<path d="M0 25L34.4 38.2633C68.8 51.5991 137.6 78.1257 206.08 93.7082C274.72 109.291 342.88 113.929 411.52 104.58C480 95.3027 548.8 72.1101 617.28 73.1972C685.92 74.2844 754.08 99.6514 822.72 107.841C891.2 116.104 960 107.117 1028.48 93.8532C1097.12 80.5899 1165.28 62.9055 1233.92 65.0073C1302.4 67.0367 1371.2 88.7798 1405.6 99.6514L1440 110.523V183H1405.6C1371.2 183 1302.4 183 1233.92 183C1165.28 183 1097.12 183 1028.48 183C960 183 891.2 183 822.72 183C754.08 183 685.92 183 617.28 183C548.8 183 480 183 411.52 183C342.88 183 274.72 183 206.08 183C137.6 183 68.8 183 34.4 183H0V25Z" fill="#2EB9C1" fill-opacity="0.72"/>
<path d="M0.0158959 151.08L48.0138 113.777C96.0117 76.0744 192.008 2.06908 288.008 7.06377C384.008 12.0585 480.013 98.0531 576.013 97.7478C672.013 98.0425 768.008 12.0372 864.008 1.73189C960.007 -8.97342 1056.01 55.0213 1152.01 87.016C1248.01 119.011 1344.01 119.005 1392.01 119.003L1440.01 119L1440.02 183L1392.02 183.003C1344.02 183.005 1248.02 183.011 1152.02 183.016C1056.02 183.021 960.018 183.027 864.018 183.032C768.018 183.037 672.018 183.043 576.018 183.048C480.018 183.053 384.018 183.058 288.018 183.064C192.018 183.069 96.0177 183.074 48.0177 183.077L0.0176667 183.08L0.0158959 151.08Z" fill="#2EB9C1" fill-opacity="0.72"/>
</svg>
