<svg width="1441" height="318" viewBox="0 0 1441 318" fill="none" xmlns="http://www.w3.org/2000/svg">
<g clip-path="url(#clip0_23_52)">
<path d="M0.0703393 288.08L48.0683 250.777C96.0662 213.074 192.062 139.069 288.062 144.064C384.063 149.058 480.067 235.053 576.067 234.748C672.067 235.043 768.063 149.037 864.062 138.732C960.061 128.027 1056.07 192.021 1152.07 224.016C1248.07 256.011 1344.07 256.005 1392.07 256.003L1440.07 256L1440.07 320L1392.07 320.003C1344.07 320.005 1248.07 320.011 1152.07 320.016C1056.07 320.021 960.072 320.027 864.072 320.032C768.072 320.037 672.072 320.043 576.072 320.048C480.072 320.053 384.072 320.058 288.072 320.064C192.072 320.069 96.0721 320.074 48.0721 320.077L0.07211 320.08L0.0703393 288.08Z" fill="#235195"/>
</g>
<defs>
<clipPath id="clip0_23_52">
<rect width="1440" height="320" fill="white" transform="translate(0.0544434 0.0797119)"/>
</clipPath>
</defs>
</svg>
