<svg width="2158" height="207" viewBox="0 0 2158 207" fill="none" xmlns="http://www.w3.org/2000/svg">
<path d="M1080 97.6944C1048 97.6944 1008.1 75.0023 1008.1 75.0023L992.664 69.0584C949.461 52.4269 908.174 30.0355 863.622 17.4548C838.376 10.3256 807.321 5.12526 773.528 7.34624C687.581 12.9951 601.639 110.078 515.691 109.744C429.744 110.088 343.791 13.0141 257.842 1.39205C171.894 -10.6815 85.9511 61.5675 0.00540261 97.6944L0.0114304 133.828L0.0113991 206.061C85.9591 206.056 171.906 206.051 257.854 206.046C343.801 206.042 429.749 206.037 515.697 206.032C601.644 206.027 687.592 206.023 773.539 206.018C859.487 206.013 945.435 206.008 988.409 206.006L1094.5 206.046C1094.5 206.046 1112.01 97.6943 1080 97.6944Z M1078.27 97.6945C1110.27 97.6945 1150.16 75.0024 1150.16 75.0024L1165.57 69.068C1208.78 52.4302 1250.07 30.0296 1294.63 17.4478C1319.86 10.3223 1350.9 5.12611 1384.67 7.34636C1470.6 12.9952 1556.52 110.078 1642.44 109.744C1728.37 110.088 1814.3 13.0142 1900.22 1.39217C1986.15 -10.6814 2072.07 61.5676 2157.99 97.6945L2157.99 133.828L2157.99 206.061C2072.06 206.056 1986.14 206.051 1900.21 206.047C1814.29 206.042 1728.36 206.037 1642.44 206.032C1556.51 206.028 1470.59 206.023 1384.66 206.018C1298.73 206.013 1212.81 206.009 1169.85 206.006L1063.78 206.047C1063.78 206.047 1046.28 97.6944 1078.27 97.6945Z" fill="#90BBD9"/>

</svg>

