<svg viewBox="0 0 2881 184" fill="none" xmlns="http://www.w3.org/2000/svg">
<path d="M2880.01 150.492L2832.01 113.195C2784 75.4974 2688 1.50268 2592 6.50799C2496 11.5133 2400.01 97.5186 2304.01 97.2239C2208.01 97.5292 2112 11.5346 2016 1.23986C1920 -9.45482 1824 54.5505 1728 86.5558C1632.01 118.561 1536.01 118.566 1488.01 118.569L1440.01 118.572L1440.01 182.572L1488.01 182.569C1536.01 182.566 1632.01 182.561 1728.01 182.556C1824.01 182.55 1920.01 182.545 2016.01 182.54C2112.01 182.535 2208.01 182.529 2304.01 182.524C2400.01 182.519 2496.01 182.513 2592.01 182.508C2688.01 182.503 2784.01 182.497 2832.01 182.495L2880.01 182.492L2880.01 150.492Z M0.0158959 151.08L48.0138 113.777C96.0117 76.0744 192.008 2.06908 288.008 7.06377C384.008 12.0585 480.013 98.0531 576.013 97.7478C672.013 98.0425 768.008 12.0372 864.008 1.73189C960.007 -8.97342 1056.01 55.0213 1152.01 87.016C1248.01 119.011 1344.01 119.005 1392.01 119.003L1440.01 119L1440.02 183L1392.02 183.003C1344.02 183.005 1248.02 183.011 1152.02 183.016C1056.02 183.021 960.018 183.027 864.018 183.032C768.018 183.037 672.018 183.043 576.018 183.048C480.018 183.053 384.018 183.058 288.018 183.064C192.018 183.069 96.0177 183.074 48.0177 183.077L0.0176667 183.08L0.0158959 151.08Z" fill="#2E69C1" fill-opacity="0.72"/>
</svg>
